<svg width="163" height="164" viewBox="0 0 163 164" fill="none" xmlns="http://www.w3.org/2000/svg">
<path d="M0 60C0 26.8629 26.8629 0 60 0H103C136.137 0 163 26.8629 163 60V104C163 137.137 136.137 164 103 164H60C26.8629 164 0 137.137 0 104V60Z" fill="white"/>
<path d="M76.6779 78.31C77.3093 78.9505 78.0605 79.4588 78.8881 79.8058C79.7157 80.1527 80.6034 80.3313 81.5 80.3313C82.3966 80.3313 83.2843 80.1527 84.1119 79.8058C84.9395 79.4588 85.6907 78.9505 86.3221 78.31L106.697 57.81C107.348 57.1729 107.868 56.413 108.227 55.5736C108.587 54.7343 108.778 53.832 108.791 52.9183C108.803 52.0046 108.637 51.0973 108.301 50.2483C107.965 49.3992 107.466 48.6251 106.833 47.97C106.2 47.3149 105.444 46.7918 104.61 46.4304C103.776 46.069 102.879 45.8764 101.971 45.8637C101.063 45.851 100.161 46.0185 99.3173 46.3564C98.4734 46.6943 97.704 47.1962 97.0529 47.8333L81.5 63.8233L65.9471 47.8333C64.6322 46.5466 62.8631 45.8381 61.029 45.8637C59.1948 45.8894 57.446 46.647 56.1671 47.97C54.8882 49.293 54.184 51.0729 54.2095 52.9183C54.235 54.7637 54.988 56.5233 56.3029 57.81L76.6779 78.31ZM97.0529 85.69L81.5 101.407L65.9471 85.69C64.6322 84.4033 62.8631 83.6948 61.029 83.7204C59.1948 83.746 57.446 84.5037 56.1671 85.8267C54.8882 87.1497 54.184 88.9296 54.2095 90.775C54.235 92.6203 54.988 94.3799 56.3029 95.6667L76.6779 116.167C77.3093 116.807 78.0605 117.315 78.8881 117.662C79.7157 118.009 80.6034 118.188 81.5 118.188C82.3966 118.188 83.2843 118.009 84.1119 117.662C84.9395 117.315 85.6907 116.807 86.3221 116.167L106.697 95.6667C107.976 94.3799 108.694 92.6347 108.694 90.815C108.694 88.9953 107.976 87.2501 106.697 85.9633C105.418 84.6766 103.684 83.9537 101.875 83.9537C100.066 83.9537 98.3318 84.6766 97.0529 85.9633V85.69Z" fill="black"/>
</svg>
