<svg width="40" height="41" viewBox="0 0 40 41" fill="none" xmlns="http://www.w3.org/2000/svg">
<path d="M33.7359 9.64065C31.2096 8.48146 28.5005 7.62742 25.6679 7.13828C25.6163 7.12884 25.5648 7.15243 25.5382 7.19962C25.1898 7.8193 24.8039 8.62773 24.5336 9.26315C21.4871 8.80704 18.4561 8.80704 15.472 9.26315C15.2017 8.6136 14.8018 7.8193 14.4518 7.19962C14.4252 7.15401 14.3737 7.13042 14.3221 7.13828C11.4911 7.62586 8.78202 8.4799 6.25413 9.64065C6.23224 9.65008 6.21348 9.66583 6.20103 9.68626C1.06244 17.3632 -0.345241 24.8515 0.345319 32.2469C0.348443 32.2831 0.368753 32.3177 0.396876 32.3397C3.78718 34.8294 7.07126 36.3409 10.2944 37.3428C10.3459 37.3586 10.4006 37.3397 10.4334 37.2972C11.1959 36.256 11.8755 35.1582 12.4582 34.0037C12.4926 33.9361 12.4598 33.8559 12.3895 33.8291C11.3115 33.4202 10.285 32.9216 9.29758 32.3554C9.21947 32.3098 9.21322 32.1981 9.28507 32.1446C9.49286 31.9889 9.7007 31.8269 9.89911 31.6633C9.935 31.6335 9.98503 31.6272 10.0272 31.646C16.5141 34.6077 23.5369 34.6077 29.9472 31.646C29.9894 31.6256 30.0394 31.6319 30.0768 31.6618C30.2753 31.8253 30.4831 31.9889 30.6924 32.1446C30.7643 32.1981 30.7596 32.3098 30.6815 32.3554C29.6941 32.9326 28.6676 33.4202 27.588 33.8276C27.5177 33.8543 27.4865 33.9361 27.5209 34.0037C28.1161 35.1566 28.7957 36.2544 29.5441 37.2956C29.5753 37.3397 29.6316 37.3586 29.6831 37.3428C32.9219 36.3409 36.2059 34.8294 39.5962 32.3397C39.6259 32.3177 39.6447 32.2846 39.6478 32.2485C40.4743 23.6985 38.2635 16.2717 33.7874 9.68782C33.7765 9.66583 33.7578 9.65008 33.7359 9.64065ZM13.4269 27.7439C11.4739 27.7439 9.86472 25.9509 9.86472 23.7489C9.86472 21.5469 11.4427 19.7539 13.4269 19.7539C15.4267 19.7539 17.0203 21.5627 16.989 23.7489C16.989 25.9509 15.411 27.7439 13.4269 27.7439ZM26.5975 27.7439C24.6446 27.7439 23.0354 25.9509 23.0354 23.7489C23.0354 21.5469 24.6133 19.7539 26.5975 19.7539C28.5973 19.7539 30.1909 21.5627 30.1597 23.7489C30.1597 25.9509 28.5973 27.7439 26.5975 27.7439Z" fill="white"/>
</svg>
