<svg width="40" height="41" viewBox="0 0 40 41" fill="none" xmlns="http://www.w3.org/2000/svg">
<path d="M20 12.6649C18.3518 12.6649 16.7407 13.1536 15.3702 14.0693C13.9998 14.985 12.9317 16.2865 12.301 17.8092C11.6703 19.3319 11.5052 21.0075 11.8268 22.624C12.1483 24.2405 12.942 25.7253 14.1074 26.8908C15.2729 28.0562 16.7577 28.8499 18.3742 29.1714C19.9908 29.493 21.6663 29.3279 23.189 28.6972C24.7117 28.0665 26.0132 26.9984 26.9289 25.628C27.8446 24.2576 28.3333 22.6464 28.3333 20.9982C28.3333 18.7881 27.4554 16.6685 25.8926 15.1057C24.3297 13.5429 22.2101 12.6649 20 12.6649V12.6649ZM20 25.9982C19.0111 25.9982 18.0444 25.705 17.2221 25.1556C16.3999 24.6062 15.759 23.8253 15.3806 22.9116C15.0022 21.998 14.9031 20.9927 15.0961 20.0228C15.289 19.0529 15.7652 18.1619 16.4645 17.4627C17.1637 16.7634 18.0546 16.2872 19.0245 16.0943C19.9944 15.9014 20.9998 16.0004 21.9134 16.3788C22.827 16.7573 23.6079 17.3981 24.1573 18.2204C24.7068 19.0426 25 20.0093 25 20.9982C25 22.3243 24.4732 23.5961 23.5355 24.5337C22.5978 25.4714 21.3261 25.9982 20 25.9982ZM28.3333 10.9982C28.0037 10.9982 27.6815 11.096 27.4074 11.2791C27.1333 11.4622 26.9197 11.7225 26.7935 12.0271C26.6674 12.3316 26.6344 12.6667 26.6987 12.99C26.763 13.3133 26.9217 13.6103 27.1548 13.8434C27.3879 14.0765 27.6849 14.2352 28.0082 14.2995C28.3315 14.3638 28.6666 14.3308 28.9711 14.2047C29.2757 14.0785 29.536 13.8649 29.7191 13.5908C29.9022 13.3167 30 12.9945 30 12.6649C30 12.2228 29.8244 11.7989 29.5118 11.4864C29.1993 11.1738 28.7754 10.9982 28.3333 10.9982ZM36.5667 14.7315C36.5391 13.3072 36.2685 11.8981 35.7667 10.5649C35.3013 9.35165 34.586 8.24986 33.6672 7.33104C32.7483 6.41222 31.6466 5.6969 30.4333 5.23154C29.1001 4.72971 27.691 4.45916 26.2667 4.43154C24.65 4.33154 24.1167 4.33154 20 4.33154C15.8833 4.33154 15.35 4.33154 13.7333 4.43154C12.309 4.45916 10.8999 4.72971 9.56666 5.23154C8.35344 5.6969 7.25165 6.41222 6.33282 7.33104C5.414 8.24986 4.69869 9.35165 4.23333 10.5649C3.73149 11.8981 3.46094 13.3072 3.43333 14.7315C3.33333 16.3649 3.33333 16.8982 3.33333 20.9982C3.33333 25.0982 3.33333 25.6315 3.43333 27.2649C3.46094 28.6892 3.73149 30.0983 4.23333 31.4315C4.69869 32.6448 5.414 33.7466 6.33282 34.6654C7.25165 35.5842 8.35344 36.2995 9.56666 36.7649C10.8999 37.2667 12.309 37.5373 13.7333 37.5649C15.4 37.5649 15.8833 37.6649 20 37.6649C24.1167 37.6649 24.65 37.6649 26.2667 37.5649C27.691 37.5373 29.1001 37.2667 30.4333 36.7649C31.6466 36.2995 32.7483 35.5842 33.6672 34.6654C34.586 33.7466 35.3013 32.6448 35.7667 31.4315C36.2685 30.0983 36.5391 28.6892 36.5667 27.2649C36.5667 25.5982 36.6667 25.0982 36.6667 20.9982C36.6667 16.8982 36.6667 16.3649 36.5667 14.7315ZM33.2333 27.1149C33.2041 28.1726 33.0072 29.2189 32.65 30.2149C32.3546 31.0021 31.8878 31.7138 31.2833 32.2982C30.7024 32.903 29.9893 33.365 29.2 33.6482C28.2017 34.0201 27.1483 34.2228 26.0833 34.2482C24.5167 34.2482 24.0333 34.3315 19.9833 34.3315C15.9333 34.3315 15.4667 34.3315 13.9 34.3315C12.8367 34.3041 11.7846 34.1072 10.7833 33.7482C9.99609 33.4529 9.28445 32.986 8.69999 32.3815C8.09525 31.8006 7.63319 31.0875 7.34999 30.2982C6.97967 29.3052 6.77691 28.2576 6.75 27.1982C6.75 25.5315 6.75 25.1149 6.75 21.0815C6.75 17.0482 6.75 16.5649 6.75 14.9649C6.77872 13.9002 6.9814 12.8474 7.34999 11.8482C7.63759 11.0659 8.09922 10.3592 8.69999 9.78154C9.28095 9.1768 9.99401 8.71474 10.7833 8.43154C11.7816 8.0597 12.835 7.85692 13.9 7.83154C15.4667 7.66488 15.95 7.66488 20 7.66488C24.05 7.66488 24.5333 7.66488 26.1 7.66488C27.1702 7.69209 28.2288 7.89478 29.2333 8.26488C30.0156 8.55247 30.7223 9.0141 31.3 9.61488C31.9047 10.1958 32.3668 10.9089 32.65 11.6982C33.058 12.7125 33.2891 13.7892 33.3333 14.8815C33.3333 16.5482 33.4167 16.9649 33.4167 20.9982C33.4167 25.0315 33.3333 25.5149 33.3333 27.1149H33.2333Z" fill="white"/>
</svg>
