<svg width="604" height="302" viewBox="0 0 604 302" fill="none" xmlns="http://www.w3.org/2000/svg">
<path d="M172.472 175.492C167.731 173.59 162.778 172.714 157.674 172.714C136.383 172.714 121.253 187.874 121.253 207.504C121.374 225.02 133.786 242.083 158.037 242.083C163.11 242.083 167.852 241.087 172.472 239.396C177.334 237.493 180.264 244.409 175.553 246.191C169.996 248.305 164.077 249.422 158.037 249.422C128.592 249.422 113.673 228.554 113.552 207.716C113.431 186.515 128.229 165.345 158.037 165.345C164.077 165.345 169.996 166.463 175.553 168.577C180.294 170.479 177.334 177.274 172.472 175.492V175.492ZM173.771 230.366C168.697 233.144 163.11 234.382 157.674 234.262C143.239 234.05 130.464 223.994 130.464 207.504C130.464 184.522 154.594 174.375 173.771 184.522C178.391 186.757 174.586 193.341 170.117 190.894C156.406 183.767 138.286 190.109 138.286 207.504C138.286 219.766 147.406 226.47 157.553 226.802C161.691 226.923 166.07 226.017 170.086 223.903C174.586 221.668 178.361 228.04 173.741 230.366H173.771Z" fill="#E83B3B"/>
<path d="M233.748 247.761V215.87H208.44V247.761H191.528V168.033H208.44V199.924H233.748V168.033H250.66V247.761H233.748V247.761Z" fill="white"/>
<path d="M297.742 165.104H299.524L335.129 247.731H316.073L312.63 239.154H284.605L281.283 247.731H262.136L297.742 165.104ZM306.379 224.205L298.678 203.458L290.766 224.205H306.379Z" fill="white"/>
<path d="M383.54 166.674C439.893 166.674 439.893 248.848 383.54 248.848C327.187 248.848 327.187 166.674 383.54 166.674V166.674ZM383.54 183.072C350.773 183.072 350.773 232.359 383.54 232.359C416.307 232.359 416.307 183.072 383.54 183.072Z" stroke="white" stroke-width="0.25" stroke-miterlimit="10"/>
<path d="M442.672 225.896C452.366 232.359 462.906 232.601 466.801 232.238C471.784 231.906 476.043 228.554 475.559 224.205C475.197 219.645 471.543 217.621 466.801 216.051C453.544 211.491 441.735 205.119 441.735 191.74C441.735 178.361 451.55 168.093 465.624 167.429C470.003 167.218 475.801 167.218 486.673 170.781L484.529 186.183C475.197 182.62 469.852 182.71 467.254 182.831C461.214 183.163 458.496 187.301 458.859 191.74C459.342 196.21 463.479 198.203 468.311 199.773C481.448 204.333 492.804 211.491 492.804 224.205C492.804 236.919 483.109 247.61 467.254 248.395C462.513 248.727 452.003 248.184 440.527 242.597L442.672 225.866V225.896Z" fill="white"/>
<path d="M87.9424 108.177V56.8064C87.9424 54.5716 89.694 52.7898 91.8382 52.7898C94.073 52.7898 95.8548 54.5414 95.8548 56.8064V108.146C95.8548 141.125 146.379 141.125 146.379 108.146V56.8064C146.379 54.5716 148.04 52.7898 150.275 52.7898C152.389 52.7898 154.171 54.5414 154.171 56.8064V108.146C154.171 151.363 87.9726 151.242 87.9726 108.146L87.9424 108.177ZM107.965 52.82C110.2 52.82 111.982 54.5716 111.982 56.8366V107.24C111.982 119.713 130.253 119.713 130.253 107.24V56.8064C130.253 54.5716 131.914 52.7898 134.269 52.7898C136.383 52.7898 138.165 54.5414 138.165 56.8064V107.21C138.165 130.192 104.13 130.192 104.13 107.21V56.8064C104.13 54.5716 105.881 52.7898 108.025 52.7898L107.965 52.82Z" fill="#E83B3B"/>
<path d="M189.596 138.437H172.744V52.4575H177.214L219.735 101.925V54.3299H236.708V140.189H232.238L189.596 92.5933V138.407V138.437Z" fill="white"/>
<path d="M255.673 138.437V54.2393H272.525V138.467H255.673V138.437Z" fill="white"/>
<path d="M295.356 139.615C293.121 139.615 291.46 137.863 291.46 135.719V56.9271C291.46 54.8131 293.121 53.0312 295.356 53.0312H336.096C338.331 53.0312 340.112 54.7829 340.112 56.9271C340.112 59.1619 338.361 60.9437 336.096 60.9437H299.222V135.749C299.222 137.863 297.47 139.645 295.326 139.645L295.356 139.615ZM340.112 72.7217C340.112 74.8357 338.361 76.6175 336.096 76.6175H315.016V84.4997H328.787C330.901 84.4997 332.683 86.2512 332.683 88.5162C332.683 90.6302 330.932 92.4121 328.787 92.4121H311.12C308.886 92.4121 307.104 90.6604 307.104 88.5162V72.7217C307.104 70.4869 308.855 68.8259 311.12 68.8259H336.096C338.331 68.8259 340.112 70.4869 340.112 72.7217V72.7217ZM332.683 104.16C332.683 106.395 330.932 108.176 328.787 108.176H315.016V135.749C315.016 137.863 313.234 139.645 311.12 139.645C308.886 139.645 307.104 137.893 307.104 135.749V104.19C307.104 102.076 308.855 100.294 311.12 100.294H328.787C330.901 100.294 332.683 102.076 332.683 104.19V104.16Z" fill="#E83B3B"/>
<path d="M354.035 138.437V54.2393H370.886V138.467H354.035V138.437Z" fill="white"/>
<path d="M389.822 138.437V54.2393H431.981V71.0909H406.643V87.9425H428.78V104.794H406.643V121.646H433.37V138.497H389.791L389.822 138.437Z" fill="white"/>
<path d="M474.261 138.437H449.165V54.2393H474.261C530.312 54.2393 530.312 138.467 474.261 138.467V138.437ZM466.016 71.0607V121.585H474.261C506.998 121.585 506.998 71.0607 474.261 71.0607H466.016Z" fill="white"/>
<path d="M383.54 232.359C383.54 232.359 368.44 232.54 361.554 219.252C351.135 224.658 346.183 227.95 346.183 227.95C346.183 227.95 356.36 250.056 383.54 248.848C383.54 248.848 410.72 250.66 421.018 227.708C402.143 218.014 405.193 219.886 405.193 219.886C405.193 219.886 398.64 232.329 383.54 232.329V232.359Z" fill="#E83B3B"/>
</svg>
