<svg width="1440" height="87" viewBox="0 0 1440 87" fill="none" xmlns="http://www.w3.org/2000/svg">
<g filter="url(#filter0_f_201_5363)">
<line x1="2.5" y1="8.47998" x2="918.43" y2="8.47998" stroke="#E83B3B" stroke-width="5" stroke-linecap="round"/>
</g>
<path d="M0 7.5C-0.276142 7.5 -0.5 7.72386 -0.5 8C-0.5 8.27614 -0.276142 8.5 0 8.5V7.5ZM0 8.5H920.93V7.5H0V8.5Z" fill="white"/>
<g filter="url(#filter1_f_201_5363)">
<path d="M519.07 40.9883C517.689 40.9883 516.57 42.1076 516.57 43.4883C516.57 44.869 517.689 45.9883 519.07 45.9883V40.9883ZM519.07 45.9883H1440V40.9883H519.07V45.9883Z" fill="#239CE8"/>
</g>
<path d="M519.07 43.3804C518.794 43.3804 518.57 43.6042 518.57 43.8804C518.57 44.1565 518.794 44.3804 519.07 44.3804V43.3804ZM519.07 44.3804H1440V43.3804H519.07V44.3804Z" fill="white"/>
<g filter="url(#filter2_f_201_5363)">
<path d="M260.731 77.7607C259.626 77.7607 258.731 78.6562 258.731 79.7607C258.731 80.8653 259.626 81.7607 260.731 81.7607V77.7607ZM260.731 81.7607H1181.66V77.7607H260.731V81.7607Z" fill="#E8E651"/>
</g>
<path d="M260.731 79.2607C260.455 79.2607 260.231 79.4846 260.231 79.7607C260.231 80.0369 260.455 80.2607 260.731 80.2607V79.2607ZM260.731 80.2607H1181.66V79.2607H260.731V80.2607Z" fill="white"/>
<g filter="url(#filter3_f_201_5363)">
<line x1="2.5" y1="8.47998" x2="918.43" y2="8.47998" stroke="#E83B3B" stroke-width="5" stroke-linecap="round"/>
</g>
<path d="M0 7.5C-0.276142 7.5 -0.5 7.72386 -0.5 8C-0.5 8.27614 -0.276142 8.5 0 8.5V7.5ZM0 8.5H920.93V7.5H0V8.5Z" fill="white"/>
<g filter="url(#filter4_f_201_5363)">
<path d="M519.07 40.9883C517.689 40.9883 516.57 42.1076 516.57 43.4883C516.57 44.869 517.689 45.9883 519.07 45.9883V40.9883ZM519.07 45.9883H1440V40.9883H519.07V45.9883Z" fill="#239CE8"/>
</g>
<path d="M519.07 43.3804C518.794 43.3804 518.57 43.6042 518.57 43.8804C518.57 44.1565 518.794 44.3804 519.07 44.3804V43.3804ZM519.07 44.3804H1440V43.3804H519.07V44.3804Z" fill="white"/>
<g filter="url(#filter5_f_201_5363)">
<path d="M260.731 77.7607C259.626 77.7607 258.731 78.6562 258.731 79.7607C258.731 80.8653 259.626 81.7607 260.731 81.7607V77.7607ZM260.731 81.7607H1181.66V77.7607H260.731V81.7607Z" fill="#E8E651"/>
</g>
<path d="M260.731 79.2607C260.455 79.2607 260.231 79.4846 260.231 79.7607C260.231 80.0369 260.455 80.2607 260.731 80.2607V79.2607ZM260.731 80.2607H1181.66V79.2607H260.731V80.2607Z" fill="white"/>
<defs>
<filter id="filter0_f_201_5363" x="-5" y="0.97998" width="930.93" height="15" filterUnits="userSpaceOnUse" color-interpolation-filters="sRGB">
<feFlood flood-opacity="0" result="BackgroundImageFix"/>
<feBlend mode="normal" in="SourceGraphic" in2="BackgroundImageFix" result="shape"/>
<feGaussianBlur stdDeviation="2.5" result="effect1_foregroundBlur_201_5363"/>
</filter>
<filter id="filter1_f_201_5363" x="511.57" y="35.9883" width="933.43" height="15" filterUnits="userSpaceOnUse" color-interpolation-filters="sRGB">
<feFlood flood-opacity="0" result="BackgroundImageFix"/>
<feBlend mode="normal" in="SourceGraphic" in2="BackgroundImageFix" result="shape"/>
<feGaussianBlur stdDeviation="2.5" result="effect1_foregroundBlur_201_5363"/>
</filter>
<filter id="filter2_f_201_5363" x="253.731" y="72.7607" width="932.93" height="14" filterUnits="userSpaceOnUse" color-interpolation-filters="sRGB">
<feFlood flood-opacity="0" result="BackgroundImageFix"/>
<feBlend mode="normal" in="SourceGraphic" in2="BackgroundImageFix" result="shape"/>
<feGaussianBlur stdDeviation="2.5" result="effect1_foregroundBlur_201_5363"/>
</filter>
<filter id="filter3_f_201_5363" x="-5" y="0.97998" width="930.93" height="15" filterUnits="userSpaceOnUse" color-interpolation-filters="sRGB">
<feFlood flood-opacity="0" result="BackgroundImageFix"/>
<feBlend mode="normal" in="SourceGraphic" in2="BackgroundImageFix" result="shape"/>
<feGaussianBlur stdDeviation="2.5" result="effect1_foregroundBlur_201_5363"/>
</filter>
<filter id="filter4_f_201_5363" x="511.57" y="35.9883" width="933.43" height="15" filterUnits="userSpaceOnUse" color-interpolation-filters="sRGB">
<feFlood flood-opacity="0" result="BackgroundImageFix"/>
<feBlend mode="normal" in="SourceGraphic" in2="BackgroundImageFix" result="shape"/>
<feGaussianBlur stdDeviation="2.5" result="effect1_foregroundBlur_201_5363"/>
</filter>
<filter id="filter5_f_201_5363" x="253.731" y="72.7607" width="932.93" height="14" filterUnits="userSpaceOnUse" color-interpolation-filters="sRGB">
<feFlood flood-opacity="0" result="BackgroundImageFix"/>
<feBlend mode="normal" in="SourceGraphic" in2="BackgroundImageFix" result="shape"/>
<feGaussianBlur stdDeviation="2.5" result="effect1_foregroundBlur_201_5363"/>
</filter>
</defs>
</svg>
