<svg width="40" height="41" viewBox="0 0 40 41" fill="none" xmlns="http://www.w3.org/2000/svg">
<path d="M38.3187 7.58189C38.3189 7.2875 38.241 6.99832 38.0931 6.74379C37.9452 6.48927 37.7325 6.2785 37.4766 6.13294C37.2207 5.98738 36.9308 5.91224 36.6364 5.91516C36.3421 5.91808 36.0537 5.99897 35.8008 6.14959C34.8253 6.73023 33.775 7.17489 32.6791 7.47125C31.1141 6.12831 29.118 5.39343 27.0558 5.40094C24.7934 5.40354 22.6206 6.28526 20.9961 7.8599C19.3717 9.43455 18.4228 11.5789 18.3497 13.8401C13.8897 13.1288 9.84745 10.8009 6.99381 7.3003C6.82187 7.09169 6.60229 6.92749 6.35358 6.82155C6.10487 6.7156 5.83433 6.67101 5.56478 6.69155C5.29538 6.71374 5.03543 6.80121 4.80743 6.9464C4.57942 7.0916 4.39022 7.29015 4.25618 7.52489C3.56872 8.72457 3.17389 10.0695 3.10376 11.4504C3.03362 12.8313 3.29016 14.2093 3.85253 15.4725L3.84928 15.4757C3.59652 15.6314 3.38793 15.8493 3.24345 16.1086C3.09897 16.368 3.02344 16.66 3.02408 16.9569C3.02102 17.2017 3.0357 17.4465 3.06803 17.6893C3.23825 19.7864 4.16766 21.7494 5.68196 23.2101C5.57923 23.4058 5.51653 23.62 5.49753 23.8402C5.47853 24.0604 5.5036 24.2822 5.57128 24.4927C6.23147 26.5496 7.63544 28.2861 9.50846 29.3624C7.60553 30.0983 5.55083 30.3549 3.52538 30.1095C3.1505 30.0625 2.77076 30.1442 2.44846 30.3414C2.12615 30.5385 1.88042 30.8394 1.75157 31.1945C1.62272 31.5497 1.61839 31.9381 1.73931 32.2961C1.86023 32.654 2.09921 32.9602 2.41704 33.1645C5.90053 35.4081 9.9565 36.601 14.1 36.6004C18.7988 36.6533 23.3833 35.1518 27.1404 32.3295C30.8975 29.5072 33.6166 25.5224 34.8747 20.9949C35.4631 19.0226 35.7635 16.9757 35.7667 14.9175C35.7667 14.8084 35.7667 14.6961 35.765 14.5838C36.6352 13.6454 37.3093 12.5427 37.7478 11.3403C38.1863 10.138 38.3804 8.86021 38.3187 7.58189V7.58189ZM32.8076 12.9351C32.5323 13.2606 32.393 13.6797 32.4186 14.1053C32.4349 14.3803 32.4333 14.657 32.4333 14.9175C32.4298 16.6567 32.1749 18.3863 31.6764 20.0526C30.6489 23.9049 28.3584 27.301 25.1716 29.6969C21.9848 32.0928 18.0861 33.35 14.1 33.2671C12.6681 33.2675 11.2412 33.0993 9.84869 32.7658C11.6244 32.1936 13.2847 31.3113 14.7527 30.16C15.023 29.9471 15.2209 29.6558 15.3191 29.326C15.4174 28.9962 15.4111 28.644 15.3013 28.3179C15.1914 27.9918 14.9834 27.7076 14.7056 27.5045C14.4279 27.3013 14.0941 27.189 13.75 27.1831C12.3647 27.1616 11.0419 26.6032 10.0602 25.6255C10.3092 25.5783 10.5566 25.5197 10.8024 25.4497C11.1624 25.3472 11.4775 25.1266 11.6968 24.8233C11.9162 24.52 12.0271 24.1517 12.0117 23.7777C11.9963 23.4037 11.8555 23.0457 11.6119 22.7615C11.3683 22.4773 11.0362 22.2833 10.6689 22.2108C9.86484 22.052 9.10819 21.7099 8.4578 21.2111C7.80742 20.7123 7.28082 20.0702 6.91894 19.3348C7.22016 19.3759 7.52329 19.4014 7.82714 19.4113C8.18811 19.4168 8.54147 19.3073 8.8361 19.0986C9.13074 18.89 9.35139 18.5931 9.46614 18.2508C9.57611 17.9054 9.57045 17.5336 9.45002 17.1917C9.3296 16.8498 9.10098 16.5565 8.79883 16.3563C8.06574 15.8679 7.46523 15.2053 7.05109 14.4279C6.63694 13.6504 6.42209 12.7824 6.42578 11.9016C6.42578 11.7909 6.42903 11.6802 6.43554 11.5712C10.171 15.0549 15.0161 17.1086 20.1172 17.3703C20.3747 17.3804 20.6311 17.3319 20.8671 17.2285C21.1031 17.125 21.3125 16.9692 21.4795 16.773C21.6448 16.5748 21.7619 16.341 21.8214 16.0899C21.881 15.8388 21.8815 15.5773 21.8229 15.326C21.7275 14.9283 21.6789 14.5208 21.678 14.1118C21.6795 12.6861 22.2466 11.3191 23.2548 10.3109C24.2629 9.30277 25.6299 8.73572 27.0557 8.73422C27.7892 8.73225 28.5152 8.88238 29.1878 9.17513C29.8604 9.46788 30.4651 9.89688 30.9635 10.4351C31.1558 10.6419 31.3977 10.7961 31.6663 10.883C31.935 10.9699 32.2214 10.9866 32.4983 10.9316C33.183 10.7983 33.8578 10.6189 34.5182 10.3945C34.0677 11.3161 33.4921 12.171 32.8076 12.9351V12.9351Z" fill="white"/>
</svg>
