<svg xmlns="http://www.w3.org/2000/svg" viewBox="0 0 200 200"><defs><style>.cls-1,.cls-3{fill:none;}.cls-2{fill:#e6332a;}.cls-3{stroke:#000;stroke-miterlimit:10;}</style></defs><g id="Logo_Noir_" data-name="Logo (Noir)"><rect class="cls-1" x="0.13" y="-0.32" width="200" height="200"/><path class="cls-2" d="M24.29,106a10.2,10.2,0,0,0-4.06-.82,9.81,9.81,0,0,0-10,10.15c0,5.1,3.44,10.07,10.1,10.07a10.88,10.88,0,0,0,4-.78,1.08,1.08,0,0,1,.84,2,12.73,12.73,0,0,1-4.81,1c-8.09,0-12.18-6.08-12.22-12.16S12.13,103,20.32,103a12.72,12.72,0,0,1,4.81.94A1.09,1.09,0,0,1,24.29,106Zm.36,16a8.46,8.46,0,0,1-4.42,1.14,7.48,7.48,0,0,1-7.48-7.8c0-6.7,6.63-9.66,11.9-6.7a1.05,1.05,0,1,1-1,1.85c-3.77-2.08-8.74-.23-8.74,4.85A5.32,5.32,0,0,0,20.19,121a6.71,6.71,0,0,0,3.45-.85A1.07,1.07,0,0,1,24.65,122Z"/><path d="M41.12,127.06v-9.3H34.17v9.3H29.52V103.82h4.65v9.3h6.95v-9.3h4.65v23.24Z"/><path d="M58.7,103h.49L69,127.06H63.74l-.94-2.5H55.09l-.91,2.5H48.92Zm2.37,17.23-2.11-6-2.18,6Z"/><path d="M92,103.46h1.47v23.6H88.79l0-13-6,6.24-5.95-6.24v13H72.22v-23.6h1.49l9.17,10.21Z"/><path d="M98.73,127.06V103.85h9.14c9,0,9,14.34,0,14.34h-4.49v8.87Zm8.75-13.39c3.12,0,3.12-5.2,0-5.2h-4.1v5.2Z"/><path d="M118.33,127.06V103.82H123v23.24Z"/><path class="cls-3" d="M139.39,103.43c16,0,16,23.95,0,23.95S123.39,103.43,139.39,103.43Zm0,4.78c-9.3,0-9.3,14.36,0,14.36S148.68,108.21,139.39,108.21Z"/><path d="M160.37,127.06h-4.64V103.33H157L168.7,117V103.85h4.68v23.7h-1.24l-11.77-13.13Z"/><path d="M178.12,120.69a10.43,10.43,0,0,0,6.63,1.85,2.34,2.34,0,0,0,2.4-2.34c-.1-1.33-1.1-1.92-2.4-2.37-3.64-1.33-6.89-3.19-6.89-7.09a6.8,6.8,0,0,1,6.56-7.08,13.66,13.66,0,0,1,5.79,1l-.59,4.49a10.63,10.63,0,0,0-4.74-1,2.3,2.3,0,0,0-2.31,2.6c.13,1.3,1.27,1.89,2.6,2.34,3.61,1.34,6.73,3.42,6.73,7.12,0,3.87-2.67,6.83-7,7a14.47,14.47,0,0,1-7.35-1.69Z"/><path class="cls-2" d="M38.78,87.16V73A1.09,1.09,0,1,1,41,73V87.16c0,9.1,13.95,9.1,13.95,0V73A1.07,1.07,0,0,1,56,71.88,1.09,1.09,0,0,1,57,73V87.16C57,99.08,38.78,99.05,38.78,87.16ZM44.3,71.88A1.1,1.1,0,0,1,45.41,73V86.9a2.52,2.52,0,1,0,5,0V73a1.09,1.09,0,1,1,2.18,0V86.9c0,6.33-9.39,6.33-9.39,0V73A1.09,1.09,0,0,1,44.3,71.88Z"/><path d="M67.63,95.51H63V71.78h1.24L76,85.43V72.3h4.68V96H79.4L67.63,82.86Z"/><path d="M86.67,95.51V72.27h4.65V95.51Z"/><path class="cls-2" d="M98.44,95.83a1.06,1.06,0,0,1-1.08-1.07V73a1.07,1.07,0,0,1,1.08-1.08h11.24a1.09,1.09,0,1,1,0,2.18H99.51V94.76A1.08,1.08,0,0,1,98.44,95.83Zm12.35-18.46a1.09,1.09,0,0,1-1.11,1.07h-5.82v2.18h3.81a1.09,1.09,0,0,1,0,2.18h-4.88a1.08,1.08,0,0,1-1.1-1.07V77.37a1.06,1.06,0,0,1,1.1-1.07h6.89A1.07,1.07,0,0,1,110.79,77.37Zm-2.05,8.68a1.09,1.09,0,0,1-1.07,1.11h-3.81v7.6a1.09,1.09,0,0,1-2.17,0V86.05a1.08,1.08,0,0,1,1.1-1.07h4.88A1.08,1.08,0,0,1,108.74,86.05Z"/><path d="M115.43,95.51V72.27h4.65V95.51Z"/><path d="M126.12,95.51V72.27h11.64v4.65h-7v4.64h6.11v4.65h-6.11v4.65h7.38v4.65Z"/><path d="M150.23,95.51h-6.92V72.27h6.92C165.7,72.27,165.7,95.51,150.23,95.51ZM148,76.92V90.86h2.27c9,0,9-13.94,0-13.94Z"/><path class="cls-2" d="M128.62,122l5.06-3.36a6,6,0,0,0,5.56,3.4c2.71,0,5.32-1.93,5.9-3.47l4.43,4.38h0c-2.49,3.67-6.44,5-10.27,5A11.86,11.86,0,0,1,128.62,122Z"/></g></svg>