<svg width="1438" height="1002" viewBox="0 0 1438 1002" fill="none" xmlns="http://www.w3.org/2000/svg">
<path d="M1438.5 0H0.5V182.5C8.83333 187 30.8 191.8 52 175C78.5 154 123 162.5 129.5 182.5C136 202.5 196.5 196 210.5 182.5C224.5 169 243 182.5 260.5 196C278 209.5 338 190 396.5 162.5C455 135 418 173.5 443 212.5C468 251.5 478 208.5 514 182.5C550 156.5 541.5 218.5 548 261C554.5 303.5 571.5 298.5 601.5 273.5C631.5 248.5 619 312.5 619 341C619 369.5 658 365 688 353.5C718 342 718 417.5 725.5 443.5C733 469.5 775 463.5 812.5 443.5C850 423.5 861.5 453.5 874 488.5C886.5 523.5 941.5 526 960 498.5C978.5 471 1016.5 516 1021.5 573.5C1026.5 631 1051.5 611 1084 582.5C1116.5 554 1110 612.5 1114 656C1118 699.5 1130 709.5 1146.5 682C1163 654.5 1171.5 713.5 1185 767C1198.5 820.5 1232.5 797 1264 767C1295.5 737 1290 808.5 1294 867C1298 925.5 1317.5 914.5 1339 879.5C1360.5 844.5 1361.5 911 1365 973.5C1367.8 1023.5 1415.17 994.333 1438.5 973.5V0Z" fill="white"/>
</svg>
