<svg width="1440" height="1059" viewBox="0 0 1440 1059" fill="none" xmlns="http://www.w3.org/2000/svg">
<path d="M1440 0H0V202.5C6.83333 196.833 23.3 181.4 34.5 165C48.5 144.5 67.5 158.5 80.5 185.5C93.5 212.5 117.5 178 133 147.5C148.5 117 204.5 173 221 191.5C237.5 210 263 196.5 284 178C305 159.5 330.5 150.5 346.5 178C362.5 205.5 389.5 207 419.5 178C449.5 149 449 212 466.5 252C484 292 497 273.5 518.5 252C540 230.5 529.5 261 552 311C574.5 361 592 360.5 603.5 347C615 333.5 632 389 635 434C638 479 659.5 479 677 471.5C694.5 464 726 492 738.5 520C751 548 770 546.5 789.5 532C809 517.5 805 558.5 815 584.5C825 610.5 859 608 875.5 593.5C892 579 910 598.5 929.5 627C949 655.5 956 642.5 989 627C1022 611.5 1017.5 645.5 1022.5 673C1027.5 700.5 1086 736.5 1107.5 721.5C1129 706.5 1144.5 742 1152.5 773.5C1160.5 805 1186.5 800 1202.5 773.5C1218.5 747 1233.5 812.5 1246.5 857.5C1259.5 902.5 1267 880 1282.5 848C1298 816 1315.5 891 1316.5 927C1317.5 963 1348 968 1370.5 942.5C1393 917 1387 981 1388 1030C1388.8 1069.2 1423 1059.33 1440 1049.5V0Z" fill="white"/>
</svg>
