<svg width="40" height="41" viewBox="0 0 40 41" fill="none" xmlns="http://www.w3.org/2000/svg">
<path d="M38.3333 17.1814C38.4158 14.7958 37.8941 12.428 36.8167 10.298C36.0857 9.42402 35.0712 8.8342 33.95 8.63135C29.3125 8.21056 24.6559 8.03809 20 8.11469C15.3611 8.03462 10.7212 8.20152 6.1 8.61469C5.18637 8.78088 4.34087 9.20942 3.66667 9.84802C2.16667 11.2314 2 13.598 1.83334 15.598C1.59152 19.194 1.59152 22.8021 1.83334 26.398C1.88155 27.5237 2.04916 28.6411 2.33334 29.7314C2.5343 30.5731 2.94088 31.3519 3.51667 31.998C4.19545 32.6704 5.06064 33.1234 6 33.298C9.5932 33.7415 13.2137 33.9254 16.8333 33.848C22.6667 33.9313 27.7833 33.848 33.8333 33.3814C34.7958 33.2174 35.6853 32.7639 36.3833 32.0814C36.8499 31.6145 37.1985 31.0432 37.4 30.4147C37.9961 28.5857 38.2888 26.6715 38.2667 24.748C38.3333 23.8147 38.3333 18.1814 38.3333 17.1814ZM16.2333 25.748V15.4314L26.1 20.6147C23.3333 22.148 19.6833 23.8814 16.2333 25.748Z" fill="white"/>
</svg>
